<svg id="light" class="icon" width="16" height="16" viewBox="0 0 16 16" fill="none" xmlns="http://www.w3.org/2000/svg">
  <path fill-rule="evenodd" clip-rule="evenodd"
    d="M8.00006 1.17009e-09C8.41427 2.28894e-05 8.75004 0.335828 8.75001 0.750041L8.74999 1.25004C8.74996 1.66426 8.41416 2.00002 7.99994 2C7.58573 1.99998 7.24996 1.66417 7.24999 1.24996L7.25001 0.749959C7.25004 0.335745 7.58584 -2.2887e-05 8.00006 1.17009e-09ZM2.34319 2.34311C2.6361 2.05023 3.11097 2.05026 3.40385 2.34316L3.75738 2.69674C4.05026 2.98965 4.05023 3.46452 3.75732 3.7574C3.46441 4.05027 2.98954 4.05025 2.69666 3.75734L2.34313 3.40377C2.05025 3.11086 2.05028 2.63598 2.34319 2.34311ZM13.6569 2.34319C13.9498 2.6361 13.9497 3.11097 13.6568 3.40385L13.3033 3.75738C13.0104 4.05026 12.5355 4.05023 12.2426 3.75732C11.9497 3.46441 11.9498 2.98954 12.2427 2.69666L12.5962 2.34313C12.8891 2.05025 13.364 2.05028 13.6569 2.34319ZM8.00026 5.5C6.61955 5.5 5.50026 6.61929 5.50026 8C5.50026 9.38071 6.61955 10.5 8.00026 10.5C9.38097 10.5 10.5003 9.38071 10.5003 8C10.5003 6.61929 9.38097 5.5 8.00026 5.5ZM4.00026 8C4.00026 5.79086 5.79112 4 8.00026 4C10.2094 4 12.0003 5.79086 12.0003 8C12.0003 10.2091 10.2094 12 8.00026 12C5.79112 12 4.00026 10.2091 4.00026 8ZM1.17006e-09 7.99994C2.28894e-05 7.58573 0.335828 7.24996 0.750041 7.24999L1.25004 7.25001C1.66426 7.25004 2.00002 7.58584 2 8.00006C1.99998 8.41427 1.66417 8.75004 1.24996 8.75001L0.749959 8.74999C0.335745 8.74996 -2.2887e-05 8.41416 1.17006e-09 7.99994ZM14 7.99994C14 7.58573 14.3358 7.24996 14.75 7.24999L15.25 7.25001C15.6643 7.25004 16 7.58584 16 8.00006C16 8.41427 15.6642 8.75004 15.25 8.75001L14.75 8.74999C14.3357 8.74996 14 8.41416 14 7.99994ZM12.2427 12.2426C12.5356 11.9497 13.0105 11.9498 13.3033 12.2427L13.6569 12.5962C13.9498 12.8891 13.9497 13.364 13.6568 13.6569C13.3639 13.9498 12.889 13.9497 12.5962 13.6568L12.2426 13.3033C11.9497 13.0104 11.9498 12.5355 12.2427 12.2426ZM3.7574 12.2427C4.05027 12.5356 4.05025 13.0105 3.75734 13.3033L3.40377 13.6569C3.11086 13.9498 2.63598 13.9497 2.34311 13.6568C2.05023 13.3639 2.05025 12.889 2.34316 12.5962L2.69674 12.2426C2.98965 11.9497 3.46452 11.9498 3.7574 12.2427ZM8.00006 14C8.41427 14 8.75004 14.3358 8.75001 14.75L8.74999 15.25C8.74996 15.6643 8.41416 16 7.99994 16C7.58573 16 7.24996 15.6642 7.24999 15.25L7.25001 14.75C7.25004 14.3357 7.58584 14 8.00006 14Z"
    fill="black" />
</svg>